<svg id="visual" viewBox="0 0 900 600" width="900" height="600" xmlns="http://www.w3.org/2000/svg" xmlns:xlink="http://www.w3.org/1999/xlink" version="1.1"><path d="M0 175L100 175L100 145L200 145L200 157L300 157L300 157L400 157L400 211L500 211L500 151L600 151L600 163L700 163L700 163L800 163L800 181L900 181L900 181L900 0L900 0L800 0L800 0L700 0L700 0L600 0L600 0L500 0L500 0L400 0L400 0L300 0L300 0L200 0L200 0L100 0L100 0L0 0Z" fill="#002e7e"></path><path d="M0 247L100 247L100 229L200 229L200 223L300 223L300 241L400 241L400 277L500 277L500 211L600 211L600 241L700 241L700 247L800 247L800 253L900 253L900 265L900 179L900 179L800 179L800 161L700 161L700 161L600 161L600 149L500 149L500 209L400 209L400 155L300 155L300 155L200 155L200 143L100 143L100 173L0 173Z" fill="#3d60bb"></path><path d="M0 415L100 415L100 427L200 427L200 421L300 421L300 421L400 421L400 409L500 409L500 397L600 397L600 427L700 427L700 409L800 409L800 439L900 439L900 421L900 263L900 251L800 251L800 245L700 245L700 239L600 239L600 209L500 209L500 275L400 275L400 239L300 239L300 221L200 221L200 227L100 227L100 245L0 245Z" fill="#5881e1"></path><path d="M0 487L100 487L100 505L200 505L200 487L300 487L300 511L400 511L400 493L500 493L500 493L600 493L600 493L700 493L700 487L800 487L800 505L900 505L900 511L900 419L900 437L800 437L800 407L700 407L700 425L600 425L600 395L500 395L500 407L400 407L400 419L300 419L300 419L200 419L200 425L100 425L100 413L0 413Z" fill="#3d60bb"></path><path d="M0 601L100 601L100 601L200 601L200 601L300 601L300 601L400 601L400 601L500 601L500 601L600 601L600 601L700 601L700 601L800 601L800 601L900 601L900 601L900 509L900 503L800 503L800 485L700 485L700 491L600 491L600 491L500 491L500 491L400 491L400 509L300 509L300 485L200 485L200 503L100 503L100 485L0 485Z" fill="#002e7e"></path></svg>