<svg id="visual" viewBox="0 0 960 300" width="960" height="300" xmlns="http://www.w3.org/2000/svg" xmlns:xlink="http://www.w3.org/1999/xlink" version="1.1"><path d="M0 228L22.8 226.7C45.7 225.3 91.3 222.7 137 213.3C182.7 204 228.3 188 274 180.8C319.7 173.7 365.3 175.3 411.2 174C457 172.7 503 168.3 548.8 174C594.7 179.7 640.3 195.3 686 203.8C731.7 212.3 777.3 213.7 823 204.7C868.7 195.7 914.3 176.3 937.2 166.7L960 157L960 0L937.2 0C914.3 0 868.7 0 823 0C777.3 0 731.7 0 686 0C640.3 0 594.7 0 548.8 0C503 0 457 0 411.2 0C365.3 0 319.7 0 274 0C228.3 0 182.7 0 137 0C91.3 0 45.7 0 22.8 0L0 0Z" fill="#3d2ec3"></path><path d="M0 217L22.8 216.7C45.7 216.3 91.3 215.7 137 209.7C182.7 203.7 228.3 192.3 274 186.5C319.7 180.7 365.3 180.3 411.2 173C457 165.7 503 151.3 548.8 154.7C594.7 158 640.3 179 686 181.7C731.7 184.3 777.3 168.7 823 158.7C868.7 148.7 914.3 144.3 937.2 142.2L960 140L960 0L937.2 0C914.3 0 868.7 0 823 0C777.3 0 731.7 0 686 0C640.3 0 594.7 0 548.8 0C503 0 457 0 411.2 0C365.3 0 319.7 0 274 0C228.3 0 182.7 0 137 0C91.3 0 45.7 0 22.8 0L0 0Z" fill="#2441c9"></path><path d="M0 136L22.8 141.2C45.7 146.3 91.3 156.7 137 166.3C182.7 176 228.3 185 274 181.2C319.7 177.3 365.3 160.7 411.2 149.8C457 139 503 134 548.8 132.5C594.7 131 640.3 133 686 136.8C731.7 140.7 777.3 146.3 823 156.2C868.7 166 914.3 180 937.2 187L960 194L960 0L937.2 0C914.3 0 868.7 0 823 0C777.3 0 731.7 0 686 0C640.3 0 594.7 0 548.8 0C503 0 457 0 411.2 0C365.3 0 319.7 0 274 0C228.3 0 182.7 0 137 0C91.3 0 45.7 0 22.8 0L0 0Z" fill="#0050cc"></path><path d="M0 111L22.8 121C45.7 131 91.3 151 137 161.8C182.7 172.7 228.3 174.3 274 173.5C319.7 172.7 365.3 169.3 411.2 160.2C457 151 503 136 548.8 135.2C594.7 134.3 640.3 147.7 686 152.8C731.7 158 777.3 155 823 154C868.7 153 914.3 154 937.2 154.5L960 155L960 0L937.2 0C914.3 0 868.7 0 823 0C777.3 0 731.7 0 686 0C640.3 0 594.7 0 548.8 0C503 0 457 0 411.2 0C365.3 0 319.7 0 274 0C228.3 0 182.7 0 137 0C91.3 0 45.7 0 22.8 0L0 0Z" fill="#005dce"></path><path d="M0 123L22.8 122.5C45.7 122 91.3 121 137 125.2C182.7 129.3 228.3 138.7 274 137.3C319.7 136 365.3 124 411.2 115.8C457 107.7 503 103.3 548.8 105.2C594.7 107 640.3 115 686 118.5C731.7 122 777.3 121 823 126.8C868.7 132.7 914.3 145.3 937.2 151.7L960 158L960 0L937.2 0C914.3 0 868.7 0 823 0C777.3 0 731.7 0 686 0C640.3 0 594.7 0 548.8 0C503 0 457 0 411.2 0C365.3 0 319.7 0 274 0C228.3 0 182.7 0 137 0C91.3 0 45.7 0 22.8 0L0 0Z" fill="#0068cd"></path><path d="M0 98L22.8 95.3C45.7 92.7 91.3 87.3 137 92.3C182.7 97.3 228.3 112.7 274 118.8C319.7 125 365.3 122 411.2 117.5C457 113 503 107 548.8 110.2C594.7 113.3 640.3 125.7 686 128.5C731.7 131.3 777.3 124.7 823 124.2C868.7 123.7 914.3 129.3 937.2 132.2L960 135L960 0L937.2 0C914.3 0 868.7 0 823 0C777.3 0 731.7 0 686 0C640.3 0 594.7 0 548.8 0C503 0 457 0 411.2 0C365.3 0 319.7 0 274 0C228.3 0 182.7 0 137 0C91.3 0 45.7 0 22.8 0L0 0Z" fill="#0073cb"></path><path d="M0 89L22.8 87.8C45.7 86.7 91.3 84.3 137 89C182.7 93.7 228.3 105.3 274 106C319.7 106.7 365.3 96.3 411.2 95.8C457 95.3 503 104.7 548.8 109.8C594.7 115 640.3 116 686 116.5C731.7 117 777.3 117 823 118.2C868.7 119.3 914.3 121.7 937.2 122.8L960 124L960 0L937.2 0C914.3 0 868.7 0 823 0C777.3 0 731.7 0 686 0C640.3 0 594.7 0 548.8 0C503 0 457 0 411.2 0C365.3 0 319.7 0 274 0C228.3 0 182.7 0 137 0C91.3 0 45.7 0 22.8 0L0 0Z" fill="#007dc9"></path><path d="M0 69L22.8 72.3C45.7 75.7 91.3 82.3 137 87.7C182.7 93 228.3 97 274 99.8C319.7 102.7 365.3 104.3 411.2 100.2C457 96 503 86 548.8 84.3C594.7 82.7 640.3 89.3 686 93.2C731.7 97 777.3 98 823 98.3C868.7 98.7 914.3 98.3 937.2 98.2L960 98L960 0L937.2 0C914.3 0 868.7 0 823 0C777.3 0 731.7 0 686 0C640.3 0 594.7 0 548.8 0C503 0 457 0 411.2 0C365.3 0 319.7 0 274 0C228.3 0 182.7 0 137 0C91.3 0 45.7 0 22.8 0L0 0Z" fill="#0085c4"></path><path d="M0 70L22.8 66.5C45.7 63 91.3 56 137 54.8C182.7 53.7 228.3 58.3 274 63.2C319.7 68 365.3 73 411.2 76.2C457 79.3 503 80.7 548.8 82.2C594.7 83.7 640.3 85.3 686 85.5C731.7 85.7 777.3 84.3 823 79.2C868.7 74 914.3 65 937.2 60.5L960 56L960 0L937.2 0C914.3 0 868.7 0 823 0C777.3 0 731.7 0 686 0C640.3 0 594.7 0 548.8 0C503 0 457 0 411.2 0C365.3 0 319.7 0 274 0C228.3 0 182.7 0 137 0C91.3 0 45.7 0 22.8 0L0 0Z" fill="#008bbb"></path><path d="M0 56L22.8 53.2C45.7 50.3 91.3 44.7 137 41C182.7 37.3 228.3 35.7 274 37.7C319.7 39.7 365.3 45.3 411.2 46.3C457 47.3 503 43.7 548.8 42.3C594.7 41 640.3 42 686 44.8C731.7 47.7 777.3 52.3 823 51.8C868.7 51.3 914.3 45.7 937.2 42.8L960 40L960 0L937.2 0C914.3 0 868.7 0 823 0C777.3 0 731.7 0 686 0C640.3 0 594.7 0 548.8 0C503 0 457 0 411.2 0C365.3 0 319.7 0 274 0C228.3 0 182.7 0 137 0C91.3 0 45.7 0 22.8 0L0 0Z" fill="#0091b0"></path><path d="M0 30L22.8 30.2C45.7 30.3 91.3 30.7 137 32.3C182.7 34 228.3 37 274 35.5C319.7 34 365.3 28 411.2 26.2C457 24.3 503 26.7 548.8 30.2C594.7 33.7 640.3 38.3 686 37C731.7 35.7 777.3 28.3 823 28.8C868.7 29.3 914.3 37.7 937.2 41.8L960 46L960 0L937.2 0C914.3 0 868.7 0 823 0C777.3 0 731.7 0 686 0C640.3 0 594.7 0 548.8 0C503 0 457 0 411.2 0C365.3 0 319.7 0 274 0C228.3 0 182.7 0 137 0C91.3 0 45.7 0 22.8 0L0 0Z" fill="#0095a3"></path><path d="M0 22L22.8 19.8C45.7 17.7 91.3 13.3 137 13.7C182.7 14 228.3 19 274 22.2C319.7 25.3 365.3 26.7 411.2 26.3C457 26 503 24 548.8 23.2C594.7 22.3 640.3 22.7 686 23C731.7 23.3 777.3 23.7 823 25C868.7 26.3 914.3 28.7 937.2 29.8L960 31L960 0L937.2 0C914.3 0 868.7 0 823 0C777.3 0 731.7 0 686 0C640.3 0 594.7 0 548.8 0C503 0 457 0 411.2 0C365.3 0 319.7 0 274 0C228.3 0 182.7 0 137 0C91.3 0 45.7 0 22.8 0L0 0Z" fill="#069897"></path></svg>