<svg id="visual" xmlns="http://www.w3.org/2000/svg" xmlns:xlink="http://www.w3.org/1999/xlink" version="1.1" viewBox="0 0 960 112.74"><path d="M0 105L17.8 105C35.7 105 71.3 105 106.8 102.7C142.3 100.3 177.7 95.7 213.2 93.5C248.7 91.3 284.3 91.7 320 91.7C355.7 91.7 391.3 91.3 426.8 93.8C462.3 96.3 497.7 101.7 533.2 103.8C568.7 106 604.3 105 640 107.2C675.7 109.3 711.3 114.7 746.8 112C782.3 109.3 817.7 98.7 853.2 96.3C888.7 94 924.3 100 942.2 103L960 106L960 0L942.2 0C924.3 0 888.7 0 853.2 0C817.7 0 782.3 0 746.8 0C711.3 0 675.7 0 640 0C604.3 0 568.7 0 533.2 0C497.7 0 462.3 0 426.8 0C391.3 0 355.7 0 320 0C284.3 0 248.7 0 213.2 0C177.7 0 142.3 0 106.8 0C71.3 0 35.7 0 17.8 0L0 0Z" fill="#003c60"/><path d="M0 75L17.8 76.2C35.7 77.3 71.3 79.7 106.8 81C142.3 82.3 177.7 82.7 213.2 85.3C248.7 88 284.3 93 320 90.8C355.7 88.7 391.3 79.3 426.8 79C462.3 78.7 497.7 87.3 533.2 90.8C568.7 94.3 604.3 92.7 640 89.7C675.7 86.7 711.3 82.3 746.8 79C782.3 75.7 817.7 73.3 853.2 74.2C888.7 75 924.3 79 942.2 81L960 83L960 0L942.2 0C924.3 0 888.7 0 853.2 0C817.7 0 782.3 0 746.8 0C711.3 0 675.7 0 640 0C604.3 0 568.7 0 533.2 0C497.7 0 462.3 0 426.8 0C391.3 0 355.7 0 320 0C284.3 0 248.7 0 213.2 0C177.7 0 142.3 0 106.8 0C71.3 0 35.7 0 17.8 0L0 0Z" fill="#193b59"/><path d="M0 63L17.8 61.7C35.7 60.3 71.3 57.7 106.8 59C142.3 60.3 177.7 65.7 213.2 66.2C248.7 66.7 284.3 62.3 320 63.7C355.7 65 391.3 72 426.8 75.7C462.3 79.3 497.7 79.7 533.2 77.3C568.7 75 604.3 70 640 69.7C675.7 69.3 711.3 73.7 746.8 76.5C782.3 79.3 817.7 80.7 853.2 80.8C888.7 81 924.3 80 942.2 79.5L960 79L960 0L942.2 0C924.3 0 888.7 0 853.2 0C817.7 0 782.3 0 746.8 0C711.3 0 675.7 0 640 0C604.3 0 568.7 0 533.2 0C497.7 0 462.3 0 426.8 0C391.3 0 355.7 0 320 0C284.3 0 248.7 0 213.2 0C177.7 0 142.3 0 106.8 0C71.3 0 35.7 0 17.8 0L0 0Z" fill="#253a52"/><path d="M0 48L17.8 47.5C35.7 47 71.3 46 106.8 48.7C142.3 51.3 177.7 57.7 213.2 59.2C248.7 60.7 284.3 57.3 320 53.7C355.7 50 391.3 46 426.8 43.7C462.3 41.3 497.7 40.7 533.2 42.8C568.7 45 604.3 50 640 53.2C675.7 56.3 711.3 57.7 746.8 58.7C782.3 59.7 817.7 60.3 853.2 58.3C888.7 56.3 924.3 51.7 942.2 49.3L960 47L960 0L942.2 0C924.3 0 888.7 0 853.2 0C817.7 0 782.3 0 746.8 0C711.3 0 675.7 0 640 0C604.3 0 568.7 0 533.2 0C497.7 0 462.3 0 426.8 0C391.3 0 355.7 0 320 0C284.3 0 248.7 0 213.2 0C177.7 0 142.3 0 106.8 0C71.3 0 35.7 0 17.8 0L0 0Z" fill="#2c3a4c"/><path d="M0 44L17.8 41.2C35.7 38.3 71.3 32.7 106.8 30C142.3 27.3 177.7 27.7 213.2 27.5C248.7 27.3 284.3 26.7 320 29.7C355.7 32.7 391.3 39.3 426.8 39.7C462.3 40 497.7 34 533.2 33.7C568.7 33.3 604.3 38.7 640 38.3C675.7 38 711.3 32 746.8 30C782.3 28 817.7 30 853.2 30C888.7 30 924.3 28 942.2 27L960 26L960 0L942.2 0C924.3 0 888.7 0 853.2 0C817.7 0 782.3 0 746.8 0C711.3 0 675.7 0 640 0C604.3 0 568.7 0 533.2 0C497.7 0 462.3 0 426.8 0C391.3 0 355.7 0 320 0C284.3 0 248.7 0 213.2 0C177.7 0 142.3 0 106.8 0C71.3 0 35.7 0 17.8 0L0 0Z" fill="#323945"/><path d="M0 19L17.8 19C35.7 19 71.3 19 106.8 19.2C142.3 19.3 177.7 19.7 213.2 20.7C248.7 21.7 284.3 23.3 320 23.3C355.7 23.3 391.3 21.7 426.8 21.2C462.3 20.7 497.7 21.3 533.2 20.5C568.7 19.7 604.3 17.3 640 17C675.7 16.7 711.3 18.3 746.8 19.2C782.3 20 817.7 20 853.2 19.2C888.7 18.3 924.3 16.7 942.2 15.8L960 15L960 0L942.2 0C924.3 0 888.7 0 853.2 0C817.7 0 782.3 0 746.8 0C711.3 0 675.7 0 640 0C604.3 0 568.7 0 533.2 0C497.7 0 462.3 0 426.8 0C391.3 0 355.7 0 320 0C284.3 0 248.7 0 213.2 0C177.7 0 142.3 0 106.8 0C71.3 0 35.7 0 17.8 0L0 0Z" fill="#36393f"/></svg>