<svg id="visual" xmlns="http://www.w3.org/2000/svg" xmlns:xlink="http://www.w3.org/1999/xlink" version="1.1" viewBox="0 0 960 105"><path d="M0 94L16 94.8C32 95.7 64 97.3 96 99.3C128 101.3 160 103.7 192 102.7C224 101.7 256 97.3 288 97C320 96.7 352 100.3 384 102.2C416 104 448 104 480 102.8C512 101.7 544 99.3 576 97.7C608 96 640 95 672 94.2C704 93.3 736 92.7 768 94C800 95.3 832 98.7 864 100.8C896 103 928 104 944 104.5L960 105L960 0L944 0C928 0 896 0 864 0C832 0 800 0 768 0C736 0 704 0 672 0C640 0 608 0 576 0C544 0 512 0 480 0C448 0 416 0 384 0C352 0 320 0 288 0C256 0 224 0 192 0C160 0 128 0 96 0C64 0 32 0 16 0L0 0Z" fill="#7065b9"/><path d="M0 89L16 88.5C32 88 64 87 96 87C128 87 160 88 192 86.7C224 85.3 256 81.7 288 79.5C320 77.3 352 76.7 384 76.7C416 76.7 448 77.3 480 78.5C512 79.7 544 81.3 576 82.5C608 83.7 640 84.3 672 84.2C704 84 736 83 768 81.5C800 80 832 78 864 76.5C896 75 928 74 944 73.5L960 73L960 0L944 0C928 0 896 0 864 0C832 0 800 0 768 0C736 0 704 0 672 0C640 0 608 0 576 0C544 0 512 0 480 0C448 0 416 0 384 0C352 0 320 0 288 0C256 0 224 0 192 0C160 0 128 0 96 0C64 0 32 0 16 0L0 0Z" fill="#4f5da5"/><path d="M0 58L16 58.2C32 58.3 64 58.7 96 59.8C128 61 160 63 192 64C224 65 256 65 288 64.8C320 64.7 352 64.3 384 63C416 61.7 448 59.3 480 60.2C512 61 544 65 576 65.8C608 66.7 640 64.3 672 62.2C704 60 736 58 768 57.2C800 56.3 832 56.7 864 57C896 57.3 928 57.7 944 57.8L960 58L960 0L944 0C928 0 896 0 864 0C832 0 800 0 768 0C736 0 704 0 672 0C640 0 608 0 576 0C544 0 512 0 480 0C448 0 416 0 384 0C352 0 320 0 288 0C256 0 224 0 192 0C160 0 128 0 96 0C64 0 32 0 16 0L0 0Z" fill="#32538f"/><path d="M0 43L16 43C32 43 64 43 96 43C128 43 160 43 192 43C224 43 256 43 288 43.3C320 43.7 352 44.3 384 43.7C416 43 448 41 480 39.8C512 38.7 544 38.3 576 39.8C608 41.3 640 44.7 672 44.7C704 44.7 736 41.3 768 41.3C800 41.3 832 44.7 864 45.7C896 46.7 928 45.3 944 44.7L960 44L960 0L944 0C928 0 896 0 864 0C832 0 800 0 768 0C736 0 704 0 672 0C640 0 608 0 576 0C544 0 512 0 480 0C448 0 416 0 384 0C352 0 320 0 288 0C256 0 224 0 192 0C160 0 128 0 96 0C64 0 32 0 16 0L0 0Z" fill="#174878"/><path d="M0 26L16 26.2C32 26.3 64 26.7 96 27.2C128 27.7 160 28.3 192 27.8C224 27.3 256 25.7 288 25.5C320 25.3 352 26.7 384 26.8C416 27 448 26 480 25.8C512 25.7 544 26.3 576 25.5C608 24.7 640 22.3 672 22C704 21.7 736 23.3 768 24.7C800 26 832 27 864 27.3C896 27.7 928 27.3 944 27.2L960 27L960 0L944 0C928 0 896 0 864 0C832 0 800 0 768 0C736 0 704 0 672 0C640 0 608 0 576 0C544 0 512 0 480 0C448 0 416 0 384 0C352 0 320 0 288 0C256 0 224 0 192 0C160 0 128 0 96 0C64 0 32 0 16 0L0 0Z" fill="#003c60"/></svg>