<svg xmlns="http://www.w3.org/2000/svg" xmlns:xlink="http://www.w3.org/1999/xlink" id="visual" version="1.1" viewBox="0 0 960 116"><path d="M0 105L22.8 103.3C45.7 101.7 91.3 98.3 137 98.5C182.7 98.7 228.3 102.3 274 105.3C319.7 108.3 365.3 110.7 411.2 108C457 105.3 503 97.7 548.8 97.8C594.7 98 640.3 106 686 110C731.7 114 777.3 114 823 114.3C868.7 114.7 914.3 115.3 937.2 115.7L960 116L960 0L937.2 0C914.3 0 868.7 0 823 0C777.3 0 731.7 0 686 0C640.3 0 594.7 0 548.8 0C503 0 457 0 411.2 0C365.3 0 319.7 0 274 0C228.3 0 182.7 0 137 0C91.3 0 45.7 0 22.8 0L0 0Z" fill="#ec2c14"/><path d="M0 88L22.8 87.3C45.7 86.7 91.3 85.3 137 87.7C182.7 90 228.3 96 274 97.2C319.7 98.3 365.3 94.7 411.2 94.5C457 94.3 503 97.7 548.8 97.8C594.7 98 640.3 95 686 91.8C731.7 88.7 777.3 85.3 823 85.8C868.7 86.3 914.3 90.7 937.2 92.8L960 95L960 0L937.2 0C914.3 0 868.7 0 823 0C777.3 0 731.7 0 686 0C640.3 0 594.7 0 548.8 0C503 0 457 0 411.2 0C365.3 0 319.7 0 274 0C228.3 0 182.7 0 137 0C91.3 0 45.7 0 22.8 0L0 0Z" fill="#f00c3f"/><path d="M0 69L22.8 70.2C45.7 71.3 91.3 73.7 137 74.3C182.7 75 228.3 74 274 76.2C319.7 78.3 365.3 83.7 411.2 84.8C457 86 503 83 548.8 82.2C594.7 81.3 640.3 82.7 686 83.5C731.7 84.3 777.3 84.7 823 84.8C868.7 85 914.3 85 937.2 85L960 85L960 0L937.2 0C914.3 0 868.7 0 823 0C777.3 0 731.7 0 686 0C640.3 0 594.7 0 548.8 0C503 0 457 0 411.2 0C365.3 0 319.7 0 274 0C228.3 0 182.7 0 137 0C91.3 0 45.7 0 22.8 0L0 0Z" fill="#eb0561"/><path d="M0 59L22.8 61C45.7 63 91.3 67 137 67C182.7 67 228.3 63 274 61.7C319.7 60.3 365.3 61.7 411.2 61.2C457 60.7 503 58.3 548.8 59C594.7 59.7 640.3 63.3 686 64.7C731.7 66 777.3 65 823 63.5C868.7 62 914.3 60 937.2 59L960 58L960 0L937.2 0C914.3 0 868.7 0 823 0C777.3 0 731.7 0 686 0C640.3 0 594.7 0 548.8 0C503 0 457 0 411.2 0C365.3 0 319.7 0 274 0C228.3 0 182.7 0 137 0C91.3 0 45.7 0 22.8 0L0 0Z" fill="#de217f"/><path d="M0 50L22.8 51.5C45.7 53 91.3 56 137 55.7C182.7 55.3 228.3 51.7 274 49.7C319.7 47.7 365.3 47.3 411.2 49C457 50.7 503 54.3 548.8 55.5C594.7 56.7 640.3 55.3 686 54.3C731.7 53.3 777.3 52.7 823 52.2C868.7 51.7 914.3 51.3 937.2 51.2L960 51L960 0L937.2 0C914.3 0 868.7 0 823 0C777.3 0 731.7 0 686 0C640.3 0 594.7 0 548.8 0C503 0 457 0 411.2 0C365.3 0 319.7 0 274 0C228.3 0 182.7 0 137 0C91.3 0 45.7 0 22.8 0L0 0Z" fill="#c93998"/><path d="M0 44L22.8 43.8C45.7 43.7 91.3 43.3 137 42C182.7 40.7 228.3 38.3 274 37.8C319.7 37.3 365.3 38.7 411.2 39.7C457 40.7 503 41.3 548.8 42.7C594.7 44 640.3 46 686 44.7C731.7 43.3 777.3 38.7 823 37C868.7 35.3 914.3 36.7 937.2 37.3L960 38L960 0L937.2 0C914.3 0 868.7 0 823 0C777.3 0 731.7 0 686 0C640.3 0 594.7 0 548.8 0C503 0 457 0 411.2 0C365.3 0 319.7 0 274 0C228.3 0 182.7 0 137 0C91.3 0 45.7 0 22.8 0L0 0Z" fill="#ae4caa"/><path d="M0 33L22.8 32.2C45.7 31.3 91.3 29.7 137 28.5C182.7 27.3 228.3 26.7 274 27C319.7 27.3 365.3 28.7 411.2 28.8C457 29 503 28 548.8 28.5C594.7 29 640.3 31 686 30.3C731.7 29.7 777.3 26.3 823 24.5C868.7 22.7 914.3 22.3 937.2 22.2L960 22L960 0L937.2 0C914.3 0 868.7 0 823 0C777.3 0 731.7 0 686 0C640.3 0 594.7 0 548.8 0C503 0 457 0 411.2 0C365.3 0 319.7 0 274 0C228.3 0 182.7 0 137 0C91.3 0 45.7 0 22.8 0L0 0Z" fill="#905bb5"/><path d="M0 14L22.8 14.7C45.7 15.3 91.3 16.7 137 17.3C182.7 18 228.3 18 274 17.5C319.7 17 365.3 16 411.2 15.3C457 14.7 503 14.3 548.8 14.8C594.7 15.3 640.3 16.7 686 17.7C731.7 18.7 777.3 19.3 823 18.2C868.7 17 914.3 14 937.2 12.5L960 11L960 0L937.2 0C914.3 0 868.7 0 823 0C777.3 0 731.7 0 686 0C640.3 0 594.7 0 548.8 0C503 0 457 0 411.2 0C365.3 0 319.7 0 274 0C228.3 0 182.7 0 137 0C91.3 0 45.7 0 22.8 0L0 0Z" fill="#7065b9"/></svg>