<svg id="visual" viewBox="0 0 960 300" width="960" height="300" xmlns="http://www.w3.org/2000/svg" xmlns:xlink="http://www.w3.org/1999/xlink" version="1.1"><path d="M0 103L12.3 102.7C24.7 102.3 49.3 101.7 74 98C98.7 94.3 123.3 87.7 148 88.5C172.7 89.3 197.3 97.7 221.8 100.8C246.3 104 270.7 102 295.2 102.3C319.7 102.7 344.3 105.3 369 105.7C393.7 106 418.3 104 443 99C467.7 94 492.3 86 517 86.5C541.7 87 566.3 96 591 96.3C615.7 96.7 640.3 88.3 664.8 86.2C689.3 84 713.7 88 738.2 88C762.7 88 787.3 84 812 85.3C836.7 86.7 861.3 93.3 886 95.7C910.7 98 935.3 96 947.7 95L960 94L960 0L947.7 0C935.3 0 910.7 0 886 0C861.3 0 836.7 0 812 0C787.3 0 762.7 0 738.2 0C713.7 0 689.3 0 664.8 0C640.3 0 615.7 0 591 0C566.3 0 541.7 0 517 0C492.3 0 467.7 0 443 0C418.3 0 393.7 0 369 0C344.3 0 319.7 0 295.2 0C270.7 0 246.3 0 221.8 0C197.3 0 172.7 0 148 0C123.3 0 98.7 0 74 0C49.3 0 24.7 0 12.3 0L0 0Z" fill="#394049"></path><path d="M0 73L12.3 72.8C24.7 72.7 49.3 72.3 74 71.7C98.7 71 123.3 70 148 73.8C172.7 77.7 197.3 86.3 221.8 91C246.3 95.7 270.7 96.3 295.2 95.8C319.7 95.3 344.3 93.7 369 89.8C393.7 86 418.3 80 443 77.5C467.7 75 492.3 76 517 77.2C541.7 78.3 566.3 79.7 591 81C615.7 82.3 640.3 83.7 664.8 84.5C689.3 85.3 713.7 85.7 738.2 87.2C762.7 88.7 787.3 91.3 812 90.7C836.7 90 861.3 86 886 85.5C910.7 85 935.3 88 947.7 89.5L960 91L960 0L947.7 0C935.3 0 910.7 0 886 0C861.3 0 836.7 0 812 0C787.3 0 762.7 0 738.2 0C713.7 0 689.3 0 664.8 0C640.3 0 615.7 0 591 0C566.3 0 541.7 0 517 0C492.3 0 467.7 0 443 0C418.3 0 393.7 0 369 0C344.3 0 319.7 0 295.2 0C270.7 0 246.3 0 221.8 0C197.3 0 172.7 0 148 0C123.3 0 98.7 0 74 0C49.3 0 24.7 0 12.3 0L0 0Z" fill="#4a565d"></path><path d="M0 67L12.3 68.5C24.7 70 49.3 73 74 76C98.7 79 123.3 82 148 81.5C172.7 81 197.3 77 221.8 76.8C246.3 76.7 270.7 80.3 295.2 79.7C319.7 79 344.3 74 369 71.3C393.7 68.7 418.3 68.3 443 70.5C467.7 72.7 492.3 77.3 517 79.3C541.7 81.3 566.3 80.7 591 77.8C615.7 75 640.3 70 664.8 68.2C689.3 66.3 713.7 67.7 738.2 67.7C762.7 67.7 787.3 66.3 812 68.7C836.7 71 861.3 77 886 79C910.7 81 935.3 79 947.7 78L960 77L960 0L947.7 0C935.3 0 910.7 0 886 0C861.3 0 836.7 0 812 0C787.3 0 762.7 0 738.2 0C713.7 0 689.3 0 664.8 0C640.3 0 615.7 0 591 0C566.3 0 541.7 0 517 0C492.3 0 467.7 0 443 0C418.3 0 393.7 0 369 0C344.3 0 319.7 0 295.2 0C270.7 0 246.3 0 221.8 0C197.3 0 172.7 0 148 0C123.3 0 98.7 0 74 0C49.3 0 24.7 0 12.3 0L0 0Z" fill="#5d6d71"></path><path d="M0 68L12.3 67.5C24.7 67 49.3 66 74 64.8C98.7 63.7 123.3 62.3 148 61.2C172.7 60 197.3 59 221.8 58.3C246.3 57.7 270.7 57.3 295.2 59C319.7 60.7 344.3 64.3 369 63.5C393.7 62.7 418.3 57.3 443 54.3C467.7 51.3 492.3 50.7 517 51C541.7 51.3 566.3 52.7 591 56.5C615.7 60.3 640.3 66.7 664.8 66.5C689.3 66.3 713.7 59.7 738.2 59.3C762.7 59 787.3 65 812 66.3C836.7 67.7 861.3 64.3 886 63.8C910.7 63.3 935.3 65.7 947.7 66.8L960 68L960 0L947.7 0C935.3 0 910.7 0 886 0C861.3 0 836.7 0 812 0C787.3 0 762.7 0 738.2 0C713.7 0 689.3 0 664.8 0C640.3 0 615.7 0 591 0C566.3 0 541.7 0 517 0C492.3 0 467.7 0 443 0C418.3 0 393.7 0 369 0C344.3 0 319.7 0 295.2 0C270.7 0 246.3 0 221.8 0C197.3 0 172.7 0 148 0C123.3 0 98.7 0 74 0C49.3 0 24.7 0 12.3 0L0 0Z" fill="#738484"></path><path d="M0 42L12.3 42.2C24.7 42.3 49.3 42.7 74 44.2C98.7 45.7 123.3 48.3 148 50.2C172.7 52 197.3 53 221.8 52C246.3 51 270.7 48 295.2 45.8C319.7 43.7 344.3 42.3 369 44.2C393.7 46 418.3 51 443 54C467.7 57 492.3 58 517 57.5C541.7 57 566.3 55 591 55.2C615.7 55.3 640.3 57.7 664.8 58.7C689.3 59.7 713.7 59.3 738.2 57.3C762.7 55.3 787.3 51.7 812 49C836.7 46.3 861.3 44.7 886 47C910.7 49.3 935.3 55.7 947.7 58.8L960 62L960 0L947.7 0C935.3 0 910.7 0 886 0C861.3 0 836.7 0 812 0C787.3 0 762.7 0 738.2 0C713.7 0 689.3 0 664.8 0C640.3 0 615.7 0 591 0C566.3 0 541.7 0 517 0C492.3 0 467.7 0 443 0C418.3 0 393.7 0 369 0C344.3 0 319.7 0 295.2 0C270.7 0 246.3 0 221.8 0C197.3 0 172.7 0 148 0C123.3 0 98.7 0 74 0C49.3 0 24.7 0 12.3 0L0 0Z" fill="#8c9b97"></path><path d="M0 36L12.3 37.8C24.7 39.7 49.3 43.3 74 43.8C98.7 44.3 123.3 41.7 148 41.7C172.7 41.7 197.3 44.3 221.8 44.5C246.3 44.7 270.7 42.3 295.2 40.2C319.7 38 344.3 36 369 38C393.7 40 418.3 46 443 49C467.7 52 492.3 52 517 51C541.7 50 566.3 48 591 46.8C615.7 45.7 640.3 45.3 664.8 44.2C689.3 43 713.7 41 738.2 39.3C762.7 37.7 787.3 36.3 812 36.5C836.7 36.7 861.3 38.3 886 38.5C910.7 38.7 935.3 37.3 947.7 36.7L960 36L960 0L947.7 0C935.3 0 910.7 0 886 0C861.3 0 836.7 0 812 0C787.3 0 762.7 0 738.2 0C713.7 0 689.3 0 664.8 0C640.3 0 615.7 0 591 0C566.3 0 541.7 0 517 0C492.3 0 467.7 0 443 0C418.3 0 393.7 0 369 0C344.3 0 319.7 0 295.2 0C270.7 0 246.3 0 221.8 0C197.3 0 172.7 0 148 0C123.3 0 98.7 0 74 0C49.3 0 24.7 0 12.3 0L0 0Z" fill="#a7b2ab"></path><path d="M0 35L12.3 35.7C24.7 36.3 49.3 37.7 74 35.7C98.7 33.7 123.3 28.3 148 26.3C172.7 24.3 197.3 25.7 221.8 27.5C246.3 29.3 270.7 31.7 295.2 31.8C319.7 32 344.3 30 369 30.2C393.7 30.3 418.3 32.7 443 34.2C467.7 35.7 492.3 36.3 517 34.5C541.7 32.7 566.3 28.3 591 27.7C615.7 27 640.3 30 664.8 30.8C689.3 31.7 713.7 30.3 738.2 29.5C762.7 28.7 787.3 28.3 812 28.7C836.7 29 861.3 30 886 29.2C910.7 28.3 935.3 25.7 947.7 24.3L960 23L960 0L947.7 0C935.3 0 910.7 0 886 0C861.3 0 836.7 0 812 0C787.3 0 762.7 0 738.2 0C713.7 0 689.3 0 664.8 0C640.3 0 615.7 0 591 0C566.3 0 541.7 0 517 0C492.3 0 467.7 0 443 0C418.3 0 393.7 0 369 0C344.3 0 319.7 0 295.2 0C270.7 0 246.3 0 221.8 0C197.3 0 172.7 0 148 0C123.3 0 98.7 0 74 0C49.3 0 24.7 0 12.3 0L0 0Z" fill="#c4cac0"></path><path d="M0 25L12.3 24.7C24.7 24.3 49.3 23.7 74 22.3C98.7 21 123.3 19 148 20C172.7 21 197.3 25 221.8 24.3C246.3 23.7 270.7 18.3 295.2 15.8C319.7 13.3 344.3 13.7 369 13.8C393.7 14 418.3 14 443 15C467.7 16 492.3 18 517 18.5C541.7 19 566.3 18 591 18.2C615.7 18.3 640.3 19.7 664.8 21.7C689.3 23.7 713.7 26.3 738.2 25.8C762.7 25.3 787.3 21.7 812 21C836.7 20.3 861.3 22.7 886 24C910.7 25.3 935.3 25.7 947.7 25.8L960 26L960 0L947.7 0C935.3 0 910.7 0 886 0C861.3 0 836.7 0 812 0C787.3 0 762.7 0 738.2 0C713.7 0 689.3 0 664.8 0C640.3 0 615.7 0 591 0C566.3 0 541.7 0 517 0C492.3 0 467.7 0 443 0C418.3 0 393.7 0 369 0C344.3 0 319.7 0 295.2 0C270.7 0 246.3 0 221.8 0C197.3 0 172.7 0 148 0C123.3 0 98.7 0 74 0C49.3 0 24.7 0 12.3 0L0 0Z" fill="#e1e2d7"></path><path d="M0 6L12.3 7.3C24.7 8.7 49.3 11.3 74 11.3C98.7 11.3 123.3 8.7 148 7.8C172.7 7 197.3 8 221.8 9.5C246.3 11 270.7 13 295.2 14.5C319.7 16 344.3 17 369 17.2C393.7 17.3 418.3 16.7 443 14.5C467.7 12.3 492.3 8.7 517 7.5C541.7 6.3 566.3 7.7 591 8C615.7 8.3 640.3 7.7 664.8 7.2C689.3 6.7 713.7 6.3 738.2 6C762.7 5.7 787.3 5.3 812 7C836.7 8.7 861.3 12.3 886 12.7C910.7 13 935.3 10 947.7 8.5L960 7L960 0L947.7 0C935.3 0 910.7 0 886 0C861.3 0 836.7 0 812 0C787.3 0 762.7 0 738.2 0C713.7 0 689.3 0 664.8 0C640.3 0 615.7 0 591 0C566.3 0 541.7 0 517 0C492.3 0 467.7 0 443 0C418.3 0 393.7 0 369 0C344.3 0 319.7 0 295.2 0C270.7 0 246.3 0 221.8 0C197.3 0 172.7 0 148 0C123.3 0 98.7 0 74 0C49.3 0 24.7 0 12.3 0L0 0Z" fill="#fffaf0"></path></svg>